0
SECTION
2
HEADER
9
$INSUNITS
70
4
9
$ACADVER
1
AC1014
9
$HANDSEED
5
FFFF
0
ENDSEC
0
SECTION
2
TABLES
0
TABLE
2
VPORT
5
8
100
AcDbSymbolTable
0
ENDTAB
0
TABLE
2
LTYPE
5
5
100
AcDbSymbolTable
0
LTYPE
5
14
100
AcDbSymbolTableRecord
100
AcDbLinetypeTableRecord
2
BYBLOCK
70
0
0
LTYPE
5
15
100
AcDbSymbolTableRecord
100
AcDbLinetypeTableRecord
2
BYLAYER
70
0
0
ENDTAB
0
TABLE
2
LAYER
5
2
100
AcDbSymbolTable
70
2
0
LAYER
5
50
100
AcDbSymbolTableRecord
100
AcDbLayerTableRecord
2
0
70
0
6
CONTINUOUS
0
ENDTAB
0
TABLE
2
STYLE
5
3
100
AcDbSymbolTable
70
1
0
STYLE
5
11
100
AcDbSymbolTableRecord
100
AcDbTextStyleTableRecord
2
STANDARD
70
0
0
ENDTAB
0
TABLE
2
VIEW
5
6
100
AcDbSymbolTable
70
0
0
ENDTAB
0
TABLE
2
UCS
5
7
100
AcDbSymbolTable
70
0
0
ENDTAB
0
TABLE
2
APPID
5
9
100
AcDbSymbolTable
70
2
0
APPID
5
12
100
AcDbSymbolTableRecord
100
AcDbRegAppTableRecord
2
ACAD
70
0
0
ENDTAB
0
TABLE
2
DIMSTYLE
5
A
100
AcDbSymbolTable
70
1
0
ENDTAB
0
TABLE
2
BLOCK_RECORD
5
1
100
AcDbSymbolTable
70
1
0
BLOCK_RECORD
5
1F
100
AcDbSymbolTableRecord
100
AcDbBlockTableRecord
2
*MODEL_SPACE
0
BLOCK_RECORD
5
1B
100
AcDbSymbolTableRecord
100
AcDbBlockTableRecord
2
*PAPER_SPACE
0
ENDTAB
0
ENDSEC
0
SECTION
2
BLOCKS
0
BLOCK
5
20
100
AcDbEntity
100
AcDbBlockBegin
2
*MODEL_SPACE
0
ENDBLK
5
21
100
AcDbEntity
100
AcDbBlockEnd
0
BLOCK
5
1C
100
AcDbEntity
100
AcDbBlockBegin
2
*PAPER_SPACE
0
ENDBLK
5
1D
100
AcDbEntity
100
AcDbBlockEnd
0
ENDSEC
0
SECTION
2
ENTITIES
0
LWPOLYLINE
5
100
100
AcDbEntity
8
0
100
AcDbPolyline
90
100
70
1
43
0.0
10
-302.76666666666654
20
-244
10
-302.76666666666654
20
-250
10
-282.03333333333325
20
-250
10
-282.03333333333325
20
-244
10
-260.2999999999999
20
-244
10
-260.2999999999999
20
-250
10
-239.56666666666661
20
-250
10
-239.56666666666661
20
-244
10
-217.83333333333329
20
-244
10
-217.83333333333329
20
-250
10
-197.09999999999994
20
-250
10
-197.09999999999994
20
-244
10
-175.36666666666662
20
-244
10
-175.36666666666662
20
-250
10
-154.63333333333327
20
-250
10
-154.63333333333327
20
-244
10
-132.89999999999995
20
-244
10
-132.89999999999995
20
-250
10
-112.16666666666661
20
-250
10
-112.16666666666661
20
-244
10
-90.433333333333294
20
-244
10
-90.433333333333294
20
-250
10
-69.69999999999996
20
-250
10
-69.69999999999996
20
-244
10
-47.966666666666633
20
-244
10
-47.966666666666633
20
-250
10
-27.233333333333292
20
-250
10
-27.233333333333292
20
-244
10
-5.9999999999999432
20
-244
10
-5.9999999999999964
20
-227.22727272727269
10
0
20
-227.22727272727269
10
0
20
-204.95454545454544
10
-5.9999999999999964
20
-204.95454545454544
10
-5.9999999999999964
20
-181.68181818181813
10
0
20
-181.68181818181813
10
0
20
-159.40909090909088
10
-5.9999999999999964
20
-159.40909090909088
10
-5.9999999999999964
20
-136.1363636363636
10
0
20
-136.1363636363636
10
0
20
-113.86363636363635
10
-5.9999999999999964
20
-113.86363636363635
10
-5.9999999999999964
20
-90.590909090909065
10
0
20
-90.590909090909065
10
0
20
-68.318181818181813
10
-5.9999999999999964
20
-68.318181818181813
10
-5.9999999999999964
20
-45.04545454545454
10
0
20
-45.04545454545454
10
0
20
-22.772727272727273
10
-5.9999999999999964
20
-22.772727272727273
10
-6.0000000000000053
20
-6.0000000000000053
10
-27.233333333333334
20
-6.0000000000000053
10
-27.233333333333334
20
0
10
-47.966666666666661
20
0
10
-47.966666666666661
20
-6.0000000000000053
10
-69.700000000000017
20
-6.0000000000000053
10
-69.700000000000017
20
0
10
-90.433333333333337
20
0
10
-90.433333333333337
20
-6.0000000000000053
10
-112.16666666666666
20
-6.0000000000000053
10
-112.16666666666666
20
0
10
-132.89999999999998
20
0
10
-132.89999999999998
20
-6.0000000000000053
10
-154.63333333333333
20
-6.0000000000000053
10
-154.63333333333333
20
0
10
-175.36666666666665
20
0
10
-175.36666666666665
20
-6.0000000000000053
10
-197.09999999999997
20
-6.0000000000000053
10
-197.09999999999997
20
0
10
-217.83333333333331
20
0
10
-217.83333333333331
20
-6.0000000000000053
10
-239.56666666666663
20
-6.0000000000000053
10
-239.56666666666663
20
0
10
-260.29999999999995
20
0
10
-260.29999999999995
20
-6.0000000000000053
10
-282.0333333333333
20
-6.0000000000000053
10
-282.0333333333333
20
0
10
-302.76666666666665
20
0
10
-302.76666666666665
20
-6.0000000000000053
10
-324
20
-6.0000000000000053
10
-324
20
-22.772727272727273
10
-330
20
-22.772727272727273
10
-330
20
-45.04545454545454
10
-324
20
-45.04545454545454
10
-324
20
-68.318181818181813
10
-330
20
-68.318181818181813
10
-330
20
-90.590909090909065
10
-324
20
-90.590909090909065
10
-324
20
-113.86363636363635
10
-330
20
-113.86363636363635
10
-330
20
-136.1363636363636
10
-324
20
-136.1363636363636
10
-324
20
-159.40909090909088
10
-330
20
-159.40909090909088
10
-330
20
-181.68181818181813
10
-324
20
-181.68181818181813
10
-324
20
-204.95454545454544
10
-330
20
-204.95454545454544
10
-330
20
-227.22727272727269
10
-324
20
-227.22727272727269
10
-323.99999999999989
20
-244
0
ENDSEC
0
SECTION
2
OBJECTS
0
DICTIONARY
5
C
100
AcDbDictionary
3
ACAD_GROUP
350
D
3
ACAD_MLINESTYLE
350
17
0
DICTIONARY
5
D
100
AcDbDictionary
0
DICTIONARY
5
1A
330
C
100
AcDbDictionary
0
DICTIONARY
5
17
100
AcDbDictionary
0
ENDSEC
0
EOF
