0
SECTION
2
HEADER
9
$INSUNITS
70
4
9
$ACADVER
1
AC1014
9
$HANDSEED
5
FFFF
0
ENDSEC
0
SECTION
2
TABLES
0
TABLE
2
VPORT
5
8
100
AcDbSymbolTable
0
ENDTAB
0
TABLE
2
LTYPE
5
5
100
AcDbSymbolTable
0
LTYPE
5
14
100
AcDbSymbolTableRecord
100
AcDbLinetypeTableRecord
2
BYBLOCK
70
0
0
LTYPE
5
15
100
AcDbSymbolTableRecord
100
AcDbLinetypeTableRecord
2
BYLAYER
70
0
0
ENDTAB
0
TABLE
2
LAYER
5
2
100
AcDbSymbolTable
70
2
0
LAYER
5
50
100
AcDbSymbolTableRecord
100
AcDbLayerTableRecord
2
0
70
0
6
CONTINUOUS
0
ENDTAB
0
TABLE
2
STYLE
5
3
100
AcDbSymbolTable
70
1
0
STYLE
5
11
100
AcDbSymbolTableRecord
100
AcDbTextStyleTableRecord
2
STANDARD
70
0
0
ENDTAB
0
TABLE
2
VIEW
5
6
100
AcDbSymbolTable
70
0
0
ENDTAB
0
TABLE
2
UCS
5
7
100
AcDbSymbolTable
70
0
0
ENDTAB
0
TABLE
2
APPID
5
9
100
AcDbSymbolTable
70
2
0
APPID
5
12
100
AcDbSymbolTableRecord
100
AcDbRegAppTableRecord
2
ACAD
70
0
0
ENDTAB
0
TABLE
2
DIMSTYLE
5
A
100
AcDbSymbolTable
70
1
0
ENDTAB
0
TABLE
2
BLOCK_RECORD
5
1
100
AcDbSymbolTable
70
1
0
BLOCK_RECORD
5
1F
100
AcDbSymbolTableRecord
100
AcDbBlockTableRecord
2
*MODEL_SPACE
0
BLOCK_RECORD
5
1B
100
AcDbSymbolTableRecord
100
AcDbBlockTableRecord
2
*PAPER_SPACE
0
ENDTAB
0
ENDSEC
0
SECTION
2
BLOCKS
0
BLOCK
5
20
100
AcDbEntity
100
AcDbBlockBegin
2
*MODEL_SPACE
0
ENDBLK
5
21
100
AcDbEntity
100
AcDbBlockEnd
0
BLOCK
5
1C
100
AcDbEntity
100
AcDbBlockBegin
2
*PAPER_SPACE
0
ENDBLK
5
1D
100
AcDbEntity
100
AcDbBlockEnd
0
ENDSEC
0
SECTION
2
ENTITIES
0
LWPOLYLINE
5
100
100
AcDbEntity
8
0
100
AcDbPolyline
90
44
70
1
43
0.0
10
48.466666666666669
20
5.9999999999999964
10
48.466666666666676
20
0
10
69.200000000000003
20
0
10
69.200000000000003
20
5.9999999999999964
10
90.933333333333337
20
5.9999999999999964
10
90.933333333333337
20
0
10
111.66666666666664
20
0
10
111.66666666666664
20
5.9999999999999964
10
133.39999999999998
20
5.9999999999999964
10
133.39999999999998
20
0
10
154.1333333333333
20
0
10
154.1333333333333
20
5.9999999999999964
10
175.86666666666667
20
5.9999999999999964
10
175.86666666666667
20
0
10
196.59999999999999
20
0
10
196.59999999999999
20
5.9999999999999964
10
218.33333333333331
20
5.9999999999999964
10
218.33333333333331
20
0
10
239.06666666666663
20
0
10
239.06666666666663
20
5.9999999999999964
10
260.79999999999995
20
5.9999999999999964
10
260.79999999999995
20
0
10
281.5333333333333
20
0
10
281.5333333333333
20
5.9999999999999964
10
303.26666666666665
20
5.9999999999999964
10
303.26666666666665
20
0
10
324
20
0
10
324
20
26.374999999999993
10
330
20
26.374999999999993
10
330
20
52.249999999999986
10
324
20
52.249999999999986
10
324
20
79.124999999999986
10
330
20
79.124999999999986
10
330
20
105
10
0
20
105
10
0
20
79.125
10
6.0000000000000009
20
79.125
10
6.0000000000000009
20
52.25
10
0
20
52.25
10
0
20
26.374999999999993
10
6.0000000000000009
20
26.374999999999993
10
6.0000000000000009
20
0
10
26.733333333333338
20
0
10
26.733333333333348
20
5.9999999999999964
0
ENDSEC
0
SECTION
2
OBJECTS
0
DICTIONARY
5
C
100
AcDbDictionary
3
ACAD_GROUP
350
D
3
ACAD_MLINESTYLE
350
17
0
DICTIONARY
5
D
100
AcDbDictionary
0
DICTIONARY
5
1A
330
C
100
AcDbDictionary
0
DICTIONARY
5
17
100
AcDbDictionary
0
ENDSEC
0
EOF
